<svg width="254" height="609" viewBox="0 0 254 609" fill="none" xmlns="http://www.w3.org/2000/svg">
<path d="M150 206L102 458" stroke="black" stroke-width="2"/>
<path d="M83.6 428C72.9333 428 64.2667 423.467 57.6 414.4C50.9333 405.333 47.6 391.733 47.6 373.6C47.6 356.267 50.4 339.6 56 323.6C61.8667 307.6 69.6 293.333 79.2 280.8C89.0667 268 100.267 257.867 112.8 250.4C125.333 242.933 138.4 239.2 152 239.2C158.933 239.2 165.467 240.133 171.6 242C177.733 243.6 183.2 245.867 188 248.8L203.6 240H212.8L188.8 375.6C186.4 389.733 188.533 396.8 195.2 396.8C199.733 396.8 204.4 394.533 209.2 390C214.267 385.2 219.2 377.6 224 367.2L230 369.6C222.267 389.6 213.867 404.4 204.8 414C195.733 423.333 186 428 175.6 428C164.933 428 157.467 424.133 153.2 416.4C149.2 408.4 148.4 397.6 150.8 384L151.6 379.6H150.4C140 395.067 129.333 407.067 118.4 415.6C107.467 423.867 95.8667 428 83.6 428ZM84.8 356.4C84.8 370.8 86.2667 381.467 89.2 388.4C92.4 395.067 98.2667 398.4 106.8 398.4C115.333 398.4 123.867 394.4 132.4 386.4C140.933 378.4 148.533 369.467 155.2 359.6L170.4 273.2C166.133 267.6 161.6 263.333 156.8 260.4C152 257.2 146.267 255.6 139.6 255.6C128.667 255.6 119.067 260.533 110.8 270.4C102.533 280 96.1333 292.533 91.6 308C87.0667 323.2 84.8 339.333 84.8 356.4Z" fill="black"/>
<path d="M1 345.5L64.8971 304.61V300H202.35V304.61L252 346.929L243.115 349.258L239.979 346.929L233.185 351.2V353.917L228.481 355.859H221.165L213.325 359.741H206.008L197.646 364.788L193.465 359.741H189.284V364.788L186.148 366.341L173.605 362.459L164.198 366.341L143.815 362.459L132.317 367.894L126.568 368.671L123.432 366.341H117.683V371H109.844L101.481 366.341L92.0741 371H84.7572L74.8272 366.341H57.5802L49.2181 362.459L38.2428 366.341L31.4486 359.741L24.1317 357.8L16.2922 353.917L10.5432 351.2V349.258H4L1 345.5Z" fill="#7B0E0E"/>
<path d="M64.8971 304.61L1 345.5L4 349.258H10.5432V351.2L16.2922 353.917M64.8971 304.61V300H202.35V304.61M64.8971 304.61H74.8272M16.2922 353.917L24.1317 357.8L31.4486 359.741M16.2922 353.917L74.8272 304.61M31.4486 359.741L38.2428 366.341L49.2181 362.459M31.4486 359.741L79.7922 304.61M49.2181 362.459L57.5802 366.341H74.8272M49.2181 362.459L84.7572 304.61M74.8272 366.341L84.7572 371H92.0741L101.481 366.341M74.8272 366.341L92.0741 304.61M101.481 366.341L109.844 371H117.683V366.341M101.481 366.341V304.61M117.683 366.341H123.432L126.568 368.671L132.317 367.894M117.683 366.341L112.699 304.61M132.317 367.894L143.815 362.459M132.317 367.894L121.078 304.61M143.815 362.459L164.198 366.341M143.815 362.459L128.933 304.61M164.198 366.341L173.605 362.459M164.198 366.341L135.741 304.61M173.605 362.459L186.148 366.341L189.284 364.788V359.741M173.605 362.459L141.502 304.61M189.284 359.741H193.465L197.646 364.788L206.008 359.741M189.284 359.741L150.405 304.61M206.008 359.741H213.325L221.165 355.859M206.008 359.741L158.26 304.61M221.165 355.859H228.481L233.185 353.917M221.165 355.859L170.828 304.61M233.185 353.917V351.2L239.979 346.929M233.185 353.917L186.148 304.61M239.979 346.929L243.115 349.258L252 346.929L202.35 304.61M239.979 346.929L195.164 304.61M202.35 304.61H195.164M74.8272 304.61H79.7922M84.7572 304.61H79.7922M84.7572 304.61H92.0741M92.0741 304.61H101.481M101.481 304.61H112.699M112.699 304.61H121.078M121.078 304.61H128.933M128.933 304.61H135.741M135.741 304.61H141.502M141.502 304.61H150.405M150.405 304.61H158.26M158.26 304.61H170.828M170.828 304.61H186.148M186.148 304.61H195.164" stroke="black"/>
</svg>
