<svg width="104" height="206" viewBox="0 0 104 206" fill="none" xmlns="http://www.w3.org/2000/svg">
<path d="M32.2 165C25.9333 165 20.7333 163.2 16.6 159.6C12.4667 155.867 10.4 150.733 10.4 144.2C10.4 137.667 12.8 132.133 17.6 127.6C22.4 123.067 30.3333 119.467 41.4 116.8L60.8 112V96.6C60.8 91.5333 58.8 87.3333 54.8 84C50.9333 80.6667 46.6 79 41.8 79C36.4667 79 32.7333 80.2667 30.6 82.8C28.4667 85.3333 27.4 88.8 27.4 93.2V99.8L26.4 100.8H18C16 100.8 14.6 100.533 13.8 100C13.1333 99.3333 12.8 97.8667 12.8 95.6C12.8 92.8 13.6667 89.9333 15.4 87C17.1333 84.0667 19.7333 81.5333 23.2 79.4C26.9333 77 30.7333 75 34.6 73.4C38.6 71.8 42.6 71 46.6 71C51.6667 71 56.2667 71.7333 60.4 73.2C64.5333 74.5333 67.8667 76.8 70.4 80C72.9333 83.2 74.2 87.4667 74.2 92.8V151.8C75.2667 152.867 76.6 153.667 78.2 154.2C79.8 154.733 81.8667 155 84.4 155H93.2L93.6 155.4V155.8C92.2667 158.067 90.2 160.2 87.4 162.2C84.7333 164.067 81.3333 165 77.2 165C72.9333 165 69.5333 163.867 67 161.6C64.4667 159.333 62.7333 156.467 61.8 153H60.8C57.3333 156.467 53.0667 159.333 48 161.6C43.0667 163.867 37.8 165 32.2 165ZM23.8 140.4C23.8 145.067 25.2 148.6 28 151C30.8 153.267 34.7333 154.4 39.8 154.4C43.1333 154.4 46.5333 154 50 153.2C53.4667 152.4 57.0667 151.067 60.8 149.2V117.8C50 119.933 41.9333 122.133 36.6 124.4C31.4 126.667 27.9333 129.133 26.2 131.8C24.6 134.333 23.8 137.2 23.8 140.4Z" fill="black"/>
<circle cx="21" cy="94" r="20.5" stroke="black" stroke-dasharray="4 4"/>
<circle cx="83" cy="158" r="20.5" stroke="black" stroke-dasharray="4 4"/>
</svg>
