<svg width="225" height="609" viewBox="0 0 225 609" fill="none" xmlns="http://www.w3.org/2000/svg">
<path d="M67.7534 351.449L43.7045 339.01M43.7045 339.01L44.8611 320.006M43.7045 339.01L26.8017 326.81M43.7045 339.01L25.5185 342.281" stroke="#FFD220" stroke-width="6"/>
<path d="M19.0182 344.5L13.2627 338.639L30.5294 321.788L29.9538 316.11L36.285 311H40.3139L47.2205 317.246V321.788L42.0405 327.649L36.285 326.898L19.0182 344.5Z" fill="black"/>
<path d="M36.285 326.898L19.0182 344.5L13.2627 338.639L30.5294 321.788M36.285 326.898L30.5294 321.788M36.285 326.898L42.0405 327.649L47.2205 321.788V317.246L40.3139 311H36.285L29.9538 316.11L30.5294 321.788" stroke="black" stroke-width="3"/>
<rect width="21.2417" height="5.22992" transform="matrix(0.719237 -0.694765 0.704462 0.709742 15.2134 338.386)" fill="#505050"/>
<path d="M45.5108 360.195L21.4576 347.753M21.4576 347.753L22.6104 328.75M21.4576 347.753L4.55108 335.55M21.4576 347.753L3.27095 351.02" stroke="#FFD220" stroke-width="6"/>
<path d="M84.4503 428C71.6503 428 60.7169 424.133 51.6503 416.4C42.8503 408.667 38.5836 397.733 38.8503 383.6C39.1169 369.733 43.7836 358.4 52.8503 349.6C61.9169 340.533 78.7169 333.067 103.25 327.2L140.85 318V291.6C140.85 281.733 137.517 273.733 130.85 267.6C124.184 261.2 116.184 258 106.85 258C97.5169 258 90.9836 260.267 87.2503 264.8C83.5169 269.067 81.6503 275.333 81.6503 283.6V299.2L79.6503 300.8H55.6503C51.6503 300.8 48.8503 300 47.2503 298.4C45.6503 296.8 44.8503 293.6 44.8503 288.8C44.8503 276.267 52.8503 265.2 68.8503 255.6C77.3836 250.267 85.7836 246.133 94.0503 243.2C102.584 240 111.517 238.4 120.85 238.4C132.584 238.4 143.517 240 153.65 243.2C163.784 246.4 171.917 251.467 178.05 258.4C184.184 265.333 187.25 274.667 187.25 286.4V395.6C190.984 399.867 197.784 402 207.65 402H220.85L222.05 403.2V407.2C218.85 412.533 213.917 417.333 207.25 421.6C200.584 425.867 192.05 428 181.65 428C171.517 428 163.25 425.733 156.85 421.2C150.717 416.4 146.317 410 143.65 402H140.85C133.917 409.467 125.65 415.733 116.05 420.8C106.45 425.6 95.9169 428 84.4503 428ZM82.8503 373.6C82.8503 382.133 85.2503 388.533 90.0503 392.8C95.1169 396.8 102.05 398.8 110.85 398.8C115.917 398.8 120.717 398.267 125.25 397.2C130.05 396.133 135.25 394.4 140.85 392V333.2C124.317 336.4 111.917 340 103.65 344C95.3836 347.733 89.7836 352 86.8503 356.8C84.1836 361.6 82.8503 367.2 82.8503 373.6Z" fill="black"/>
</svg>
