<svg width="1280" height="6585" viewBox="0 0 1280 6585" fill="none" xmlns="http://www.w3.org/2000/svg">
<path d="M1207 6585H1280V2H1207V6585Z" fill="#7B0E0E"/>
<path d="M0 6585H73V2H0V6585Z" fill="#7B0E0E"/>
<path d="M8 6585H16V2H8V6585Z" fill="#490808"/>
<path d="M24 6585H32V2H24V6585Z" fill="#490808"/>
<path d="M40 6585H48V2H40V6585Z" fill="#490808"/>
<path d="M56 6585H64V2H56V6585Z" fill="#490808"/>
<path d="M1272 6585H1264V2H1272V6585Z" fill="#490808"/>
<path d="M1256 6585H1248V2H1256V6585Z" fill="#490808"/>
<path d="M1240 6585H1232V2H1240V6585Z" fill="#490808"/>
<path d="M1224 6585H1216V2H1224V6585Z" fill="#490808"/>
<path d="M0 261V1H294C272.5 93.5 189.5 238.5 0 261Z" fill="#7B0E0E"/>
<path d="M1280 261V1H986C1007.5 93.5 1090.5 238.5 1280 261Z" fill="#7B0E0E"/>
<path d="M257 73C281 157.847 440 150.742 461 73H257Z" fill="#7B0E0E" stroke="#7B0E0E"/>
<path d="M444 73C468 157.847 627 150.742 648 73H444Z" fill="#7B0E0E" stroke="#7B0E0E"/>
<path d="M631 73C655 157.847 814 150.742 835 73H631Z" fill="#7B0E0E" stroke="#7B0E0E"/>
<path d="M818 73C842 157.847 1001 150.742 1022 73H818Z" fill="#7B0E0E" stroke="#7B0E0E"/>
<path d="M43.8681 121.415L73.0456 79.7452C74.6295 77.4831 77.7472 76.9334 80.0092 78.5173L128.574 112.523L93.6607 162.384L45.096 128.379C42.8339 126.795 42.2842 123.677 43.8681 121.415Z" fill="#1E1E1E"/>
<path d="M95.3004 160.524C97.482 162.052 101.329 161.977 106.474 159.147C111.461 156.404 116.94 151.412 121.6 144.757C126.26 138.103 129.077 131.247 129.949 125.622C130.848 119.819 129.602 116.179 127.421 114.652C125.239 113.124 121.392 113.198 116.247 116.028C111.26 118.771 105.781 123.763 101.121 130.418C96.4614 137.073 93.6444 143.929 92.7724 149.554C91.8729 155.356 93.1187 158.996 95.3004 160.524Z" fill="#FFD220" stroke="#1E1E1E" stroke-width="5"/>
<path d="M58.5674 58H70.5674C71.672 58 72.5674 58.8954 72.5674 60V113H56.5674V60C56.5674 58.8954 57.4628 58 58.5674 58Z" fill="#505050"/>
<ellipse cx="8" cy="6" rx="8" ry="6" transform="matrix(-1 0 0 1 72.5674 106)" fill="#505050"/>
<path d="M96.0315 158.229L125.533 116.73L698 413L276 413L96.0315 158.229Z" fill="#FFD220" fill-opacity="0.6"/>
<path d="M1236.7 121.415L1207.52 79.7452C1205.94 77.4831 1202.82 76.9334 1200.56 78.5173L1151.99 112.523L1186.91 162.384L1235.47 128.379C1237.73 126.795 1238.28 123.677 1236.7 121.415Z" fill="#1E1E1E"/>
<path d="M1185.27 160.524C1183.09 162.052 1179.24 161.977 1174.09 159.147C1169.11 156.404 1163.63 151.412 1158.97 144.757C1154.31 138.103 1151.49 131.247 1150.62 125.622C1149.72 119.819 1150.96 116.179 1153.15 114.652C1155.33 113.124 1159.17 113.198 1164.32 116.028C1169.31 118.771 1174.79 123.763 1179.45 130.418C1184.11 137.073 1186.92 143.929 1187.79 149.554C1188.69 155.356 1187.45 158.996 1185.27 160.524Z" fill="#FFD220" stroke="#1E1E1E" stroke-width="5"/>
<path d="M1222 58H1210C1208.9 58 1208 58.8954 1208 60V113H1224V60C1224 58.8954 1223.1 58 1222 58Z" fill="#505050"/>
<ellipse cx="1216" cy="112" rx="8" ry="6" fill="#505050"/>
<path d="M1184.5 158.229L1155 116.73L582.536 413L1004.54 413L1184.5 158.229Z" fill="#FFD220" fill-opacity="0.6"/>
<path d="M73 261V245H0L0 261H73Z" fill="#FFD220"/>
<path d="M1280 261V245H1207V261H1280Z" fill="#FFD220"/>
<path d="M1034 76V2L245 2V76L1034 76Z" fill="#7B0E0E"/>
<path d="M1280 62H0" stroke="black" stroke-width="13"/>
<path d="M1280 7.00078L0 8" stroke="black" stroke-width="13"/>
<path d="M31 7L69.2548 59L109 7" stroke="black" stroke-width="8"/>
<path d="M411 7L449.255 59L489 7" stroke="black" stroke-width="8"/>
<path d="M791 7L829.255 59L869 7" stroke="black" stroke-width="8"/>
<path d="M126 7L164.255 59L204 7" stroke="black" stroke-width="8"/>
<path d="M506 7L544.255 59L584 7" stroke="black" stroke-width="8"/>
<path d="M886 7L924.255 59L964 7" stroke="black" stroke-width="8"/>
<path d="M221 7L259.255 59L299 7" stroke="black" stroke-width="8"/>
<path d="M601 7L639.255 59L679 7" stroke="black" stroke-width="8"/>
<path d="M981 7L1019.25 59L1059 7" stroke="black" stroke-width="8"/>
<path d="M316 7L354.255 59L394 7" stroke="black" stroke-width="8"/>
<path d="M696 7L734.255 59L774 7" stroke="black" stroke-width="8"/>
<path d="M1076 7L1114.25 59L1154 7" stroke="black" stroke-width="8"/>
<path d="M1171 7L1209.25 59L1249 7" stroke="black" stroke-width="8"/>
</svg>
