<svg width="1280" height="6583" viewBox="0 0 1280 6583" fill="none" xmlns="http://www.w3.org/2000/svg">
<path d="M0 6583H73V0H0V6583Z" fill="#7B0E0E"/>
<path d="M8 6583H16V0H8V6583Z" fill="#490808"/>
<path d="M24 6583H32V0H24V6583Z" fill="#490808"/>
<path d="M40 6583H48V0H40V6583Z" fill="#490808"/>
<path d="M56 6583H64V0H56V6583Z" fill="#490808"/>
<path d="M1207 6583H1280V0H1207V6583Z" fill="#7B0E0E"/>
<path d="M1272 6583H1264V0H1272V6583Z" fill="#490808"/>
<path d="M1256 6583H1248V0H1256V6583Z" fill="#490808"/>
<path d="M1240 6583H1232V0H1240V6583Z" fill="#490808"/>
<path d="M1224 6583H1216V0H1224V6583Z" fill="#490808"/>
</svg>
