<svg width="154" height="299" viewBox="0 0 154 299" fill="none" xmlns="http://www.w3.org/2000/svg">
<path d="M129.2 26.2H131.8L132.6 27V29C132.6 36.6 131 42.3333 127.8 46.2C124.733 50.0667 118.4 52.5333 108.8 53.6C101.733 54.4 96.2667 55.2667 92.4 56.2C88.5333 57 85.5333 57.8667 83.4 58.8C81.4 59.7333 79.5333 60.7333 77.8 61.8C75.4 63.5333 73.2 66.1333 71.2 69.6C69.2 73.0667 67.7333 78.1333 66.8 84.8C66.5333 87.0667 66.2667 89.6 66 92.4C65.8667 95.0667 65.8 97.9333 65.8 101C69 97 73.0667 93.6667 78 91C82.9333 88.3333 89.1333 87 96.6 87C104.2 87 111 88.8667 117 92.6C123 96.2 127.733 101.4 131.2 108.2C134.8 114.867 136.6 122.8 136.6 132C136.6 141.2 134.667 149.2 130.8 156C127.067 162.667 121.933 167.867 115.4 171.6C109 175.2 101.8 177 93.8 177C84.4667 177 76.6 174.8 70.2 170.4C63.8 166 59 159.933 55.8 152.2C52.6 144.467 51 135.6 51 125.6C51 115.067 51.7333 105.333 53.2 96.4C54.6667 87.4667 57.4667 79.3333 61.6 72C65.8667 64.6667 71.9333 58.3333 79.8 53C87.8 47.6667 98.3333 43.3333 111.4 40C116.333 38.8 120.067 37.6667 122.6 36.6C125.133 35.4 126.867 34.0667 127.8 32.6C128.733 31 129.2 28.8667 129.2 26.2ZM65.8 124C65.8 139.333 68.6 150.867 74.2 158.6C79.9333 166.2 87.4 170 96.6 170C103.4 170 109.267 167.133 114.2 161.4C119.267 155.667 121.8 147.067 121.8 135.6C121.8 128.8 120.933 122.267 119.2 116C117.6 109.6 114.6 104.4 110.2 100.4C105.933 96.2667 99.8 94.2 91.8 94.2C86.6 94.2 81.7333 95.5333 77.2 98.2C72.6667 100.867 68.8667 104.267 65.8 108.4V124Z" fill="black"/>
<circle cx="120.5" cy="39.5" r="31.5" fill="#FFE479" stroke="black" stroke-width="2"/>
<mask id="mask0_426_13" style="mask-type:alpha" maskUnits="userSpaceOnUse" x="14" y="20" width="125" height="219">
<path d="M127.89 20.24H131.66L132.82 21.4V24.3C132.82 35.32 130.5 43.6333 125.86 49.24C121.413 54.8467 112.23 58.4233 98.31 59.97C88.0633 61.13 80.1367 62.3867 74.53 63.74C68.9233 64.9 64.5733 66.1567 61.48 67.51C58.58 68.8633 55.8733 70.3133 53.36 71.86C49.88 74.3733 46.69 78.1433 43.79 83.17C40.89 88.1967 38.7633 95.5433 37.41 105.21C37.0233 108.497 36.6367 112.17 36.25 116.23C36.0567 120.097 35.96 124.253 35.96 128.7C40.6 122.9 46.4967 118.067 53.65 114.2C60.8033 110.333 69.7933 108.4 80.62 108.4C91.64 108.4 101.5 111.107 110.2 116.52C118.9 121.74 125.763 129.28 130.79 139.14C136.01 148.807 138.62 160.31 138.62 173.65C138.62 186.99 135.817 198.59 130.21 208.45C124.797 218.117 117.353 225.657 107.88 231.07C98.6 236.29 88.16 238.9 76.56 238.9C63.0267 238.9 51.62 235.71 42.34 229.33C33.06 222.95 26.1 214.153 21.46 202.94C16.82 191.727 14.5 178.87 14.5 164.37C14.5 149.097 15.5633 134.983 17.69 122.03C19.8167 109.077 23.8767 97.2833 29.87 86.65C36.0567 76.0167 44.8533 66.8333 56.26 59.1C67.86 51.3667 83.1333 45.0833 102.08 40.25C109.233 38.51 114.647 36.8667 118.32 35.32C121.993 33.58 124.507 31.6467 125.86 29.52C127.213 27.2 127.89 24.1067 127.89 20.24ZM35.96 162.05C35.96 184.283 40.02 201.007 48.14 212.22C56.4533 223.24 67.28 228.75 80.62 228.75C90.48 228.75 98.9867 224.593 106.14 216.28C113.487 207.967 117.16 195.497 117.16 178.87C117.16 169.01 115.903 159.537 113.39 150.45C111.07 141.17 106.72 133.63 100.34 127.83C94.1533 121.837 85.26 118.84 73.66 118.84C66.12 118.84 59.0633 120.773 52.49 124.64C45.9167 128.507 40.4067 133.437 35.96 139.43V162.05Z" fill="#FFD220"/>
</mask>
<g mask="url(#mask0_426_13)">
<circle cx="120.5" cy="39.5" r="30.5" fill="black"/>
</g>
</svg>
