<svg width="239" height="609" viewBox="0 0 239 609" fill="none" xmlns="http://www.w3.org/2000/svg">
<path d="M23.3 520C16.6333 520 11.1667 518.667 6.9 516C2.63333 513.333 0.5 510.4 0.5 507.2C0.5 505.067 1.3 502.667 2.9 500L12.9 482.4H15.3L25.3 490.8C29.0333 493.733 33.7 495.2 39.3 495.2C47.8333 495.2 54.5 490.8 59.3 482C64.1 473.467 67.8333 460.267 70.5 442.4L98.5 260H68.9V242.4H100.9L103.3 228C104.367 221.333 107.167 213.6 111.7 204.8C116.5 195.733 122.633 186.533 130.1 177.2C137.567 167.867 145.7 159.2 154.5 151.2C163.567 142.933 172.9 136.4 182.5 131.6C192.367 126.533 201.833 124 210.9 124C214.367 124 217.567 124.4 220.5 125.2C223.7 125.733 226.367 126.4 228.5 127.2C234.9 130.4 238.1 134 238.1 138C238.1 140.133 237.167 142.8 235.3 146L223.3 166.4H220.5L211.7 160C203.967 154.4 196.367 151.6 188.9 151.6C170.233 151.6 157.967 170 152.1 206.8L146.5 242.4H188.5V260H143.7L118.9 419.6C117.833 426 115.167 433.467 110.9 442C106.633 450.533 101.167 459.333 94.5 468.4C88.1 477.467 80.9 485.867 72.9 493.6C65.1667 501.6 57.0333 508 48.5 512.8C39.9667 517.6 31.5667 520 23.3 520Z" fill="black"/>
<path d="M144.112 266.481L228 308.5L222.059 307.5L217.198 309.074H211.797L210.176 305.37L196.674 307.5H188.572L185.117 305.37H179.489L170.644 309.074L164.468 308L160.996 305.37L156.315 306L154.564 309.074H148.936L145.614 307L136.875 309.074V305.37H130.443L128.835 310L122.174 308L117.079 310L112.493 309.074L107.931 310L103.83 306L99.2444 307L98.2823 309.074H91.0461L87.015 307L80.5937 309.074L75.2952 308.5L73.3575 306.785H70.9455L70.1996 309.074H66.1213L62.0466 306.5L61.2972 309.074L56.246 308.5L51.9251 309.074L47.6043 307L41.6631 309.074L35.1818 307.5L33.5615 310H31.9412L28.7005 308.5L26 310L98.2823 266.481V260H144.112V266.481Z" fill="#FFF1BB"/>
<path d="M98.2823 266.481H144.112M98.2823 266.481L26 310L28.7005 308.5L31.9412 310H33.5615L35.1818 307.5L41.6631 309.074L47.6043 307L51.9251 309.074L56.246 308.5L61.2972 309.074L62.0466 306.5L66.1213 309.074H70.1996L70.9455 306.785H73.3575L75.2952 308.5L80.5937 309.074L87.015 307L91.0461 309.074H98.2823L99.2444 307L103.83 306L107.931 310L112.493 309.074L117.079 310L122.174 308L128.835 310L130.443 305.37H136.875V309.074L145.614 307L148.936 309.074H154.564L156.315 306L160.996 305.37L164.468 308L170.644 309.074L179.489 305.37H185.117L188.572 307.5H196.674L210.176 305.37L211.797 309.074H217.198L222.059 307.5L228 308.5L144.112 266.481M98.2823 266.481V260H144.112V266.481" stroke="black"/>
</svg>
