<svg width="183" height="609" viewBox="0 0 183 609" fill="none" xmlns="http://www.w3.org/2000/svg">
<path d="M134 261.072L158.079 273.511M158.079 273.511L156.921 292.515M158.079 273.511L175.003 285.711M158.079 273.511L176.287 270.24" stroke="#FFF1BB" stroke-width="6"/>
<path d="M39.281 267.941L20.4652 287.446M20.4652 287.446L2.58952 280.892M20.4652 287.446L3.9281 300.165M20.4652 287.446L18.3824 305.828" stroke="#FFF1BB" stroke-width="6"/>
<path d="M35 424V417.6L60.6 404.8V262H29.4V243.6H60.6V228.4C60.6 222.533 62.0667 215.333 65 206.8C68.2 198 72.6 188.8 78.2 179.2C83.8 169.6 90.4667 160.667 98.2 152.4C106.2 144.133 115 137.333 124.6 132C134.467 126.667 144.867 124 155.8 124C158.2 124 160.733 124.4 163.4 125.2C166.333 126 168.733 126.8 170.6 127.6C178.333 131.067 182.2 134.8 182.2 138.8C182.2 140.4 181.533 142.8 180.2 146L171.8 166H168.6L158.6 162C150.867 158.533 142.333 156.8 133 156.8C118.867 156.8 109.533 161.467 105 170.8C100.467 179.867 98.2 194 98.2 213.2V243.6H149.8V262H98.2V405.6L127.4 417.6V424H35Z" fill="black"/>
</svg>
