<svg width="800" height="722" viewBox="0 0 800 722" fill="none" xmlns="http://www.w3.org/2000/svg">
<path d="M114.088 45.5815L151.6 13.2635C153.693 11.4611 156.918 11.6348 158.804 13.6515L198.529 56.1188L153.441 94.9638L113.716 52.4965C111.83 50.4798 111.996 47.3839 114.088 45.5815Z" fill="#1E1E1E"/>
<path d="M155.494 93.5529C157.268 95.449 161.012 96.2338 166.643 94.7332C172.101 93.2786 178.539 89.8348 184.551 84.6556C190.562 79.4765 194.822 73.7037 196.915 68.6524C199.075 63.4408 198.665 59.7841 196.891 57.888C195.117 55.992 191.373 55.2071 185.742 56.7078C180.284 58.1623 173.846 61.6061 167.834 66.7853C161.823 71.9644 157.563 77.7372 155.469 82.7885C153.31 88.0001 153.72 91.6568 155.494 93.5529Z" fill="#FFD220" stroke="#1E1E1E" stroke-width="5"/>
<path d="M129.332 0H141.332C142.436 0 143.332 0.895428 143.332 2V52.7812H127.332V2C127.332 0.895431 128.227 0 129.332 0Z" fill="#505050"/>
<ellipse cx="8" cy="5.75795" rx="8" ry="5.75795" transform="matrix(-1 0 0 1 143.332 46.0637)" fill="#505050"/>
<path d="M158.857 91.4956L194.3 60.4999L791.57 479.045C718.145 533.926 351.352 540.902 271.3 491.517L158.857 91.4956Z" fill="#FFD220" fill-opacity="0.6"/>
</svg>
