<svg width="284" height="309" viewBox="0 0 284 309" fill="none" xmlns="http://www.w3.org/2000/svg">
<path d="M140.4 247C125.8 247 112.3 244.5 99.9 239.5C87.5 234.3 76.7 227.2 67.5 218.2C58.3 209 51.1 198.2 45.9 185.8C40.9 173.4 38.4 159.8 38.4 145C38.4 130.2 40.9 116.6 45.9 104.2C51.1 91.8 58.3 81.1 67.5 72.1C76.7 62.9 87.5 55.8 99.9 50.8C112.3 45.6 125.8 43 140.4 43C155.2 43 168.8 45.6 181.2 50.8C193.6 55.8 204.4 62.9 213.6 72.1C222.8 81.1 229.9 91.8 234.9 104.2C240.1 116.6 242.7 130.2 242.7 145C242.7 159.8 240.1 173.4 234.9 185.8C229.9 198.2 222.8 209 213.6 218.2C204.4 227.2 193.6 234.3 181.2 239.5C168.8 244.5 155.2 247 140.4 247ZM145.8 231.7C157 231.7 166.8 228.5 175.2 222.1C183.8 215.7 190.5 206.7 195.3 195.1C200.1 183.5 202.5 169.8 202.5 154C202.5 134.6 199.5 117.7 193.5 103.3C187.7 88.9 179.7 77.8 169.5 70C159.5 62 148.3 58 135.9 58C124.9 58 115 61.2 106.2 67.6C97.6 73.8 90.8 82.7 85.8 94.3C80.8 105.9 78.3 119.6 78.3 135.4C78.3 154.8 81.3 171.7 87.3 186.1C93.3 200.5 101.4 211.7 111.6 219.7C122 227.7 133.4 231.7 145.8 231.7Z" fill="black"/>
<path d="M90.5 282V269L57.5 274V282H90.5Z" fill="black"/>
<path d="M96 233.5L90.5 269M90.5 269V282H57.5V274L90.5 269Z" stroke="black" stroke-width="5"/>
<path d="M197.5 272.5V259.5L230.5 264.5V272.5H197.5Z" fill="black"/>
<path d="M192 224L207.5 243.5L197.5 259.5M197.5 259.5V272.5H230.5V264.5L197.5 259.5Z" stroke="black" stroke-width="5"/>
<path d="M28 124.25L26 128L20 135.5L4 129L10 116L28 124.25Z" fill="#FFE479"/>
<path d="M44.5 138.5L26 128M26 128L28 124.25M26 128L20 135.5L4 129L10 116L28 124.25M23.5 110.5L30 120.5L28 124.25" stroke="black" stroke-width="5"/>
<path d="M256.5 114.75L258.5 118.5L264.5 126L280.5 119.5L274.5 106.5L256.5 114.75Z" fill="#FFE479"/>
<path d="M240 129L258.5 118.5M258.5 118.5L256.5 114.75M258.5 118.5L264.5 126L280.5 119.5L274.5 106.5L256.5 114.75M261 101L254.5 111L256.5 114.75" stroke="black" stroke-width="5"/>
</svg>
