<svg width="616" height="287" viewBox="0 0 616 287" fill="none" xmlns="http://www.w3.org/2000/svg">
<rect x="0.230408" width="614.845" height="287" rx="18" fill="#FFD220"/>
<path d="M203.848 68.1213C205.019 66.9497 205.019 65.0503 203.848 63.8787L184.756 44.7868C183.584 43.6152 181.685 43.6152 180.513 44.7868C179.341 45.9584 179.341 47.8579 180.513 49.0294L197.484 66L180.513 82.9706C179.341 84.1421 179.341 86.0416 180.513 87.2132C181.685 88.3848 183.584 88.3848 184.756 87.2132L203.848 68.1213ZM148.998 69H201.726V63H148.998V69Z" fill="black"/>
<path d="M193.49 212.121C194.662 210.95 194.662 209.05 193.49 207.879L174.398 188.787C173.227 187.615 171.327 187.615 170.156 188.787C168.984 189.958 168.984 191.858 170.156 193.029L187.126 210L170.156 226.971C168.984 228.142 168.984 230.042 170.156 231.213C171.327 232.385 173.227 232.385 174.398 231.213L193.49 212.121ZM138.641 213H191.369V207H138.641V213Z" fill="black"/>
<path d="M205.564 134.72C203.516 134.72 201.895 134.293 200.7 133.44C199.506 132.587 198.908 131.605 198.908 130.496C198.908 129.813 199.164 128.96 199.676 127.936L201.98 123.328H202.748L205.564 125.376C206.674 126.144 208.295 126.528 210.428 126.528C213.756 126.528 216.402 124.821 218.364 121.408C220.327 118.08 221.735 113.515 222.588 107.712L230.908 51.776H221.052V46.144H231.676L232.444 41.28C232.786 39.3173 233.639 36.928 235.004 34.112C236.37 31.296 238.119 28.3947 240.252 25.408C242.471 22.336 245.031 19.4773 247.932 16.832C250.834 14.1867 253.948 12.0533 257.276 10.432C260.69 8.81066 264.231 7.99999 267.9 7.99999C270.204 7.99999 272.295 8.21333 274.172 8.63999C276.05 9.06666 277.714 9.62133 279.164 10.304L289.404 7.99999H289.788L280.7 60.224H281.34C284.583 55.2747 287.868 51.4773 291.196 48.832C294.61 46.1867 298.279 44.864 302.204 44.864C305.703 44.864 308.562 46.4 310.78 49.472C312.999 52.4587 314.108 56.896 314.108 62.784C314.108 68.16 313.255 73.408 311.548 78.528C309.842 83.5627 307.495 88.128 304.508 92.224C301.522 96.2347 298.066 99.4347 294.14 101.824C290.3 104.128 286.204 105.28 281.852 105.28C279.378 105.28 277.031 104.939 274.812 104.256C272.679 103.659 270.802 102.891 269.18 101.952L262.14 105.024H261.116L276.092 19.264C274.215 17.984 272.338 17.0453 270.46 16.448C268.668 15.7653 266.535 15.424 264.06 15.424C258.258 15.424 253.863 17.344 250.876 21.184C247.975 24.9387 246.055 29.9307 245.116 36.16L243.58 46.144H257.532V51.776H242.684L235.132 101.824C234.876 103.616 234.108 105.877 232.828 108.608C231.634 111.424 230.055 114.325 228.092 117.312C226.215 120.299 224.039 123.115 221.564 125.76C219.175 128.405 216.615 130.539 213.884 132.16C211.154 133.867 208.38 134.72 205.564 134.72ZM295.164 54.336C292.348 54.336 289.575 55.6587 286.844 58.304C284.114 60.864 281.682 63.68 279.548 66.752L274.94 93.76C276.306 95.808 277.714 97.3867 279.164 98.496C280.615 99.6053 282.45 100.16 284.668 100.16C288.167 100.16 291.239 98.624 293.884 95.552C296.53 92.48 298.578 88.4693 300.028 83.52C301.564 78.5707 302.332 73.28 302.332 67.648C302.332 63.2107 301.82 59.8827 300.796 57.664C299.858 55.4453 297.98 54.336 295.164 54.336Z" fill="black"/>
<path d="M15.3672 134.72C13.3192 134.72 11.6978 134.293 10.5032 133.44C9.30851 132.587 8.71118 131.605 8.71118 130.496C8.71118 129.813 8.96718 128.96 9.47918 127.936L11.7832 123.328H12.5512L15.3672 125.376C16.4765 126.144 18.0978 126.528 20.2312 126.528C23.5592 126.528 26.2045 124.821 28.1672 121.408C30.1298 118.08 31.5378 113.515 32.3912 107.712L40.7112 51.776H30.8552V46.144H41.4792L42.2472 41.28C42.5032 39.4027 43.3138 37.0987 44.6792 34.368C46.1298 31.552 47.9645 28.6507 50.1832 25.664C52.4018 22.592 54.9192 19.7333 57.7352 17.088C60.5512 14.3573 63.5378 12.1813 66.6952 10.56C69.8525 8.85333 73.0525 7.99999 76.2952 7.99999C77.2339 7.99999 78.1299 8.12799 78.9832 8.384C79.8365 8.55466 80.6045 8.76799 81.2872 9.02399C82.4819 9.62133 83.2499 10.176 83.5912 10.688C84.0179 11.1147 84.2312 11.6693 84.2312 12.352C84.2312 12.6933 84.1032 13.12 83.8472 13.632C83.6765 14.144 83.4632 14.6133 83.2072 15.04L80.5192 20.032H79.4952L76.6792 18.368C74.4605 17.088 71.9432 16.448 69.1272 16.448C65.2019 16.448 62.0872 18.1547 59.7832 21.568C57.5645 24.896 55.9859 29.5467 55.0472 35.52L53.3832 46.144H67.3352V51.776H52.6152L44.9352 101.824C44.6792 103.616 43.9112 105.877 42.6312 108.608C41.4365 111.424 39.8578 114.325 37.8952 117.312C36.0178 120.299 33.8418 123.115 31.3672 125.76C28.9778 128.405 26.4178 130.539 23.6872 132.16C20.9565 133.867 18.1832 134.72 15.3672 134.72Z" fill="black"/>
<path d="M101.156 105.28C98.7666 105.28 96.4626 104.939 94.2439 104.256C92.1106 103.659 90.2333 102.891 88.6119 101.952L81.5719 105.024H80.5479L95.7799 17.344L86.0519 13.12V12.096L108.836 7.99999H109.22L100.132 60.224H100.772C103.673 56.128 106.745 52.544 109.988 49.472C113.231 46.4 117.113 44.864 121.636 44.864C125.135 44.864 127.993 46.4 130.212 49.472C132.431 52.4587 133.54 56.896 133.54 62.784C133.54 68.16 132.687 73.408 130.98 78.528C129.273 83.5627 126.927 88.128 123.94 92.224C120.953 96.2347 117.497 99.4347 113.572 101.824C109.647 104.128 105.508 105.28 101.156 105.28ZM114.596 54.336C112.377 54.336 109.86 55.4453 107.044 57.664C104.228 59.8827 101.54 62.912 98.9799 66.752L94.2439 93.76C95.8653 96.064 97.4013 97.728 98.8519 98.752C100.388 99.6907 102.137 100.16 104.1 100.16C107.257 100.16 110.159 98.752 112.804 95.936C115.535 93.0347 117.711 89.152 119.332 84.288C120.953 79.3387 121.764 73.792 121.764 67.648C121.764 62.8693 121.209 59.456 120.1 57.408C119.076 55.36 117.241 54.336 114.596 54.336Z" fill="black"/>
<path d="M15.3672 278.72C13.3192 278.72 11.6978 278.293 10.5032 277.44C9.30851 276.587 8.71118 275.605 8.71118 274.496C8.71118 273.813 8.96718 272.96 9.47918 271.936L11.7832 267.328H12.5512L15.3672 269.376C16.4765 270.144 18.0978 270.528 20.2312 270.528C23.5592 270.528 26.2045 268.821 28.1672 265.408C30.1298 262.08 31.5378 257.515 32.3912 251.712L40.7112 195.776H30.8552V190.144H41.4792L42.2472 185.28C42.5032 183.403 43.3138 181.099 44.6792 178.368C46.1298 175.552 47.9645 172.651 50.1832 169.664C52.4018 166.592 54.9192 163.733 57.7352 161.088C60.5512 158.357 63.5378 156.181 66.6952 154.56C69.8525 152.853 73.0525 152 76.2952 152C77.2339 152 78.1299 152.128 78.9832 152.384C79.8365 152.555 80.6045 152.768 81.2872 153.024C82.4819 153.621 83.2499 154.176 83.5912 154.688C84.0179 155.115 84.2312 155.669 84.2312 156.352C84.2312 156.693 84.1032 157.12 83.8472 157.632C83.6765 158.144 83.4632 158.613 83.2072 159.04L80.5192 164.032H79.4952L76.6792 162.368C74.4605 161.088 71.9432 160.448 69.1272 160.448C65.2019 160.448 62.0872 162.155 59.7832 165.568C57.5645 168.896 55.9859 173.547 55.0472 179.52L53.3832 190.144H67.3352V195.776H52.6152L44.9352 245.824C44.6792 247.616 43.9112 249.877 42.6312 252.608C41.4365 255.424 39.8578 258.325 37.8952 261.312C36.0178 264.299 33.8418 267.115 31.3672 269.76C28.9778 272.405 26.4178 274.539 23.6872 276.16C20.9565 277.867 18.1832 278.72 15.3672 278.72Z" fill="black"/>
<path d="M92.9639 249.28C89.7213 249.28 87.2893 248.299 85.6679 246.336C84.0466 244.373 83.2359 241.557 83.2359 237.888C83.2359 237.12 83.2786 236.309 83.3639 235.456C83.4493 234.517 83.5773 233.579 83.7479 232.64L90.2759 195.776H81.1879V194.752L92.9639 189.376L104.1 176.192H105.38L102.948 190.144H118.82V195.776H101.924L96.2919 227.52C96.1213 228.715 95.9933 229.739 95.9079 230.592C95.8226 231.445 95.7799 232.213 95.7799 232.896C95.7799 234.944 96.1213 236.395 96.8039 237.248C97.4866 238.101 98.4679 238.528 99.7479 238.528C101.711 238.528 103.759 237.504 105.892 235.456C108.111 233.408 110.116 230.251 111.908 225.984L113.828 226.752C111.097 234.773 107.94 240.533 104.356 244.032C100.772 247.531 96.9746 249.28 92.9639 249.28Z" fill="black"/>
<path d="M205.564 278.72C203.516 278.72 201.895 278.293 200.7 277.44C199.506 276.587 198.908 275.605 198.908 274.496C198.908 273.813 199.164 272.96 199.676 271.936L201.98 267.328H202.748L205.564 269.376C206.674 270.144 208.295 270.528 210.428 270.528C213.756 270.528 216.402 268.821 218.364 265.408C220.327 262.08 221.735 257.515 222.588 251.712L230.908 195.776H221.052V190.144H231.676L232.444 185.28C232.7 183.403 233.511 181.099 234.876 178.368C236.327 175.552 238.162 172.651 240.38 169.664C242.599 166.592 245.116 163.733 247.932 161.088C250.748 158.357 253.735 156.181 256.892 154.56C260.05 152.853 263.25 152 266.492 152C267.431 152 268.284 152.128 269.052 152.384C269.906 152.64 270.631 152.896 271.228 153.152C273.532 154.091 274.556 155.285 274.3 156.736C274.13 157.504 273.831 158.272 273.404 159.04L270.716 164.032H269.692L266.876 162.368C264.658 161.088 262.14 160.448 259.324 160.448C255.399 160.448 252.284 162.155 249.98 165.568C247.762 168.896 246.183 173.547 245.244 179.52L243.58 190.144H272.508L284.796 176.192H285.948L283.516 190.144H299.388V195.776H282.492L276.86 227.904C276.178 231.829 276.178 234.603 276.86 236.224C277.543 237.76 278.695 238.528 280.316 238.528C282.279 238.528 284.327 237.504 286.46 235.456C288.679 233.408 290.684 230.251 292.476 225.984L294.396 226.752C291.751 234.773 288.636 240.533 285.052 244.032C281.468 247.531 277.671 249.28 273.66 249.28C269.65 249.28 266.876 247.829 265.34 244.928C263.804 241.941 263.463 237.845 264.316 232.64L270.844 195.776H242.812L235.132 245.824C234.876 247.616 234.108 249.877 232.828 252.608C231.634 255.424 230.055 258.325 228.092 261.312C226.215 264.299 224.039 267.115 221.564 269.76C219.175 272.405 216.615 274.539 213.884 276.16C211.154 277.867 208.38 278.72 205.564 278.72Z" fill="black"/>
<path d="M495.734 68.1213C496.906 66.9497 496.906 65.0503 495.734 63.8787L476.642 44.7868C475.471 43.6152 473.571 43.6152 472.399 44.7868C471.228 45.9584 471.228 47.8579 472.399 49.0294L489.37 66L472.399 82.9706C471.228 84.1421 471.228 86.0416 472.399 87.2132C473.571 88.3848 475.471 88.3848 476.642 87.2132L495.734 68.1213ZM440.885 69H493.613V63H440.885V69Z" fill="black"/>
<path d="M506.091 212.121C507.263 210.95 507.263 209.05 506.091 207.879L486.999 188.787C485.828 187.615 483.928 187.615 482.757 188.787C481.585 189.958 481.585 191.858 482.757 193.029L499.727 210L482.757 226.971C481.585 228.142 481.585 230.042 482.757 231.213C483.928 232.385 485.828 232.385 486.999 231.213L506.091 212.121ZM451.242 213H503.97V207H451.242V213Z" fill="black"/>
<path d="M362.784 29.76C360.651 29.76 358.816 28.992 357.28 27.456C355.744 25.92 354.976 24.0853 354.976 21.952C354.976 19.8187 355.744 17.984 357.28 16.448C358.816 14.912 360.651 14.144 362.784 14.144C364.917 14.144 366.709 14.912 368.16 16.448C369.696 17.984 370.464 19.8187 370.464 21.952C370.464 24.0853 369.696 25.92 368.16 27.456C366.709 28.992 364.917 29.76 362.784 29.76ZM353.824 105.28C350.411 105.28 348.021 104.043 346.656 101.568C345.376 99.008 345.163 95.552 346.016 91.2L352.416 54.336L342.048 49.984V48.96L365.472 44.864H365.856L358.048 88.512C357.28 93.0347 357.963 95.296 360.096 95.296C361.461 95.296 362.955 94.5707 364.576 93.12C366.197 91.584 367.776 89.152 369.312 85.824L371.232 86.592C368.757 92.992 366.069 97.728 363.168 100.8C360.267 103.787 357.152 105.28 353.824 105.28Z" fill="black"/>
<path d="M398.436 29.76C396.217 29.76 394.34 28.992 392.804 27.456C391.353 25.92 390.628 24.0853 390.628 21.952C390.628 19.8187 391.353 17.984 392.804 16.448C394.34 14.912 396.217 14.144 398.436 14.144C400.569 14.144 402.404 14.912 403.94 16.448C405.476 17.984 406.244 19.8187 406.244 21.952C406.244 24.0853 405.476 25.92 403.94 27.456C402.404 28.992 400.569 29.76 398.436 29.76ZM363.364 133.44V131.264C366.265 129.301 368.782 127.253 370.916 125.12C372.964 122.987 374.67 120.341 376.036 117.184C377.401 114.112 378.51 110.144 379.364 105.28L388.196 54.336L377.7 49.984V48.96L401.252 44.864H401.636L391.524 103.104C390.329 109.76 387.3 115.563 382.436 120.512C377.657 125.547 371.3 129.856 363.364 133.44Z" fill="black"/>
<path d="M327.968 278.72C325.92 278.72 324.299 278.293 323.104 277.44C321.909 276.587 321.312 275.605 321.312 274.496C321.312 273.813 321.568 272.96 322.08 271.936L324.384 267.328H325.152L327.968 269.376C329.077 270.144 330.699 270.528 332.832 270.528C336.16 270.528 338.805 268.821 340.768 265.408C342.731 262.08 344.139 257.515 344.992 251.712L353.312 195.776H343.456V190.144H354.08L354.848 185.28C355.104 183.403 355.915 181.099 357.28 178.368C358.731 175.552 360.565 172.651 362.784 169.664C365.003 166.592 367.52 163.733 370.336 161.088C373.152 158.357 376.139 156.181 379.296 154.56C382.453 152.853 385.653 152 388.896 152C389.835 152 390.731 152.128 391.584 152.384C392.437 152.555 393.205 152.768 393.888 153.024C395.083 153.621 395.851 154.176 396.192 154.688C396.619 155.115 396.832 155.669 396.832 156.352C396.832 156.693 396.704 157.12 396.448 157.632C396.277 158.144 396.064 158.613 395.808 159.04L393.12 164.032H392.096L389.28 162.368C387.061 161.088 384.544 160.448 381.728 160.448C377.803 160.448 374.688 162.155 372.384 165.568C370.165 168.896 368.587 173.547 367.648 179.52L365.984 190.144H379.936V195.776H365.216L357.536 245.824C357.28 247.616 356.512 249.877 355.232 252.608C354.037 255.424 352.459 258.325 350.496 261.312C348.619 264.299 346.443 267.115 343.968 269.76C341.579 272.405 339.019 274.539 336.288 276.16C333.557 277.867 330.784 278.72 327.968 278.72Z" fill="black"/>
<path d="M408.7 249.28C405.287 249.28 402.94 248.043 401.66 245.568C400.38 243.008 400.081 239.552 400.764 235.2L413.692 161.344L402.94 157.12V156.096L426.748 152H427.132L412.924 232.512C412.156 237.035 412.839 239.296 414.972 239.296C416.337 239.296 417.831 238.571 419.452 237.12C421.073 235.584 422.652 233.152 424.188 229.824L426.108 230.592C423.633 236.992 420.945 241.728 418.044 244.8C415.143 247.787 412.028 249.28 408.7 249.28Z" fill="black"/>
<path d="M552.981 29.76C550.848 29.76 549.013 28.992 547.477 27.456C545.941 25.92 545.173 24.0853 545.173 21.952C545.173 19.8187 545.941 17.984 547.477 16.448C549.013 14.912 550.848 14.144 552.981 14.144C555.114 14.144 556.906 14.912 558.357 16.448C559.893 17.984 560.661 19.8187 560.661 21.952C560.661 24.0853 559.893 25.92 558.357 27.456C556.906 28.992 555.114 29.76 552.981 29.76ZM544.021 105.28C540.608 105.28 538.218 104.043 536.853 101.568C535.573 99.008 535.36 95.552 536.213 91.2L542.613 54.336L532.245 49.984V48.96L555.669 44.864H556.053L548.245 88.512C547.477 93.0347 548.16 95.296 550.293 95.296C551.658 95.296 553.152 94.5707 554.773 93.12C556.394 91.584 557.973 89.152 559.509 85.824L561.429 86.592C558.954 92.992 556.266 97.728 553.365 100.8C550.464 103.787 547.349 105.28 544.021 105.28Z" fill="black"/>
<path d="M599.932 29.76C597.713 29.76 595.836 28.992 594.3 27.456C592.849 25.92 592.124 24.0853 592.124 21.952C592.124 19.8187 592.849 17.984 594.3 16.448C595.836 14.912 597.713 14.144 599.932 14.144C602.065 14.144 603.9 14.912 605.436 16.448C606.972 17.984 607.74 19.8187 607.74 21.952C607.74 24.0853 606.972 25.92 605.436 27.456C603.9 28.992 602.065 29.76 599.932 29.76ZM564.86 133.44V131.264C567.761 129.301 570.278 127.253 572.412 125.12C574.46 122.987 576.166 120.341 577.532 117.184C578.897 114.112 580.006 110.144 580.86 105.28L589.692 54.336L579.196 49.984V48.96L602.748 44.864H603.132L593.02 103.104C591.825 109.76 588.796 115.563 583.932 120.512C579.153 125.547 572.796 129.856 564.86 133.44Z" fill="black"/>
<path d="M580.787 50.8079L589.653 49.5L591.065 58L589.618 56.4373C588.157 54.8598 586.048 54.0489 583.906 54.2421C581.082 54.4969 578.484 55.8936 576.714 58.1091L575.058 60.1809L552.07 96.4344C550.066 99.5938 545.692 100.169 542.939 97.6359L541.162 95.9999L545.399 87C545.926 90.5467 550.46 91.7133 552.634 88.8615L562.818 75.5L578.745 52.0884C579.216 51.3947 579.957 50.9303 580.787 50.8079Z" fill="black"/>
<path d="M562.818 75.5L578.745 52.0884C579.216 51.3947 579.957 50.9303 580.787 50.8079L589.653 49.5L591.065 58L589.618 56.4373C588.157 54.8598 586.048 54.0489 583.906 54.2421V54.2421C581.082 54.4969 578.484 55.8936 576.714 58.1091L562.818 75.5ZM562.818 75.5L552.634 88.8615C550.46 91.7133 545.926 90.5467 545.399 87V87L541.162 95.9999L542.939 97.6359C545.692 100.169 550.066 99.5938 552.07 96.4344L575.058 60.1809L562.818 75.5Z" stroke="black" stroke-width="5"/>
<path d="M518.165 278.72C516.117 278.72 514.496 278.293 513.301 277.44C512.106 276.587 511.509 275.605 511.509 274.496C511.509 273.813 511.765 272.96 512.277 271.936L514.581 267.328H515.349L518.165 269.376C519.274 270.144 520.896 270.528 523.029 270.528C526.357 270.528 529.002 268.821 530.965 265.408C532.928 262.08 534.336 257.515 535.189 251.712L543.509 195.776H533.653V190.144H544.277L545.045 185.28C545.386 183.317 546.24 180.928 547.605 178.112C548.97 175.296 550.72 172.395 552.853 169.408C555.072 166.336 557.632 163.477 560.533 160.832C563.434 158.187 566.549 156.053 569.877 154.432C573.29 152.811 576.832 152 580.501 152C582.89 152 585.066 152.256 587.029 152.768C588.992 153.195 590.741 153.792 592.277 154.56L600.725 152H601.109L586.901 232.512C586.133 237.035 586.816 239.296 588.949 239.296C590.314 239.296 591.808 238.571 593.429 237.12C595.05 235.584 596.629 233.152 598.165 229.824L600.085 230.592C597.61 236.992 594.922 241.728 592.021 244.8C589.12 247.787 586.005 249.28 582.677 249.28C579.349 249.28 577.002 248.043 575.637 245.568C574.357 243.008 574.101 239.552 574.869 235.2L587.541 162.496C585.92 161.472 584.256 160.704 582.549 160.192C580.842 159.68 578.88 159.424 576.661 159.424C570.858 159.424 566.464 161.344 563.477 165.184C560.576 168.939 558.656 173.931 557.717 180.16L556.181 190.144H570.133V195.776H555.285L547.733 245.824C547.477 247.616 546.709 249.877 545.429 252.608C544.234 255.424 542.656 258.325 540.693 261.312C538.816 264.299 536.64 267.115 534.165 269.76C531.776 272.405 529.216 274.539 526.485 276.16C523.754 277.867 520.981 278.72 518.165 278.72Z" fill="black"/>
</svg>
