<svg width="1199" height="818" viewBox="0 0 1199 818" fill="none" xmlns="http://www.w3.org/2000/svg">
<path d="M38.4805 51.7476H1160.52V748.182H38.4805V51.7476Z" fill="#FFD220" stroke="#490808" stroke-width="12"/>
<rect x="829.933" y="703.206" width="641.773" height="15.5348" transform="rotate(-90 829.933 703.206)" fill="#D1AD1A"/>
<rect x="416.966" y="703.206" width="641.773" height="15.5348" transform="rotate(-90 416.966 703.206)" fill="#D1AD1A"/>
<rect x="870.064" y="703.206" width="641.773" height="15.5348" transform="rotate(-90 870.064 703.206)" fill="#D1AD1A"/>
<rect x="455.803" y="703.206" width="641.773" height="15.5348" transform="rotate(-90 455.803 703.206)" fill="#D1AD1A"/>
<rect x="910.196" y="703.206" width="641.773" height="15.5348" transform="rotate(-90 910.196 703.206)" fill="#D1AD1A"/>
<rect x="494.64" y="703.206" width="641.773" height="15.5348" transform="rotate(-90 494.64 703.206)" fill="#D1AD1A"/>
<rect x="950.327" y="703.206" width="641.773" height="15.5348" transform="rotate(-90 950.327 703.206)" fill="#D1AD1A"/>
<rect x="533.477" y="703.206" width="641.773" height="15.5348" transform="rotate(-90 533.477 703.206)" fill="#D1AD1A"/>
<rect x="990.459" y="703.206" width="641.773" height="15.5348" transform="rotate(-90 990.459 703.206)" fill="#D1AD1A"/>
<rect x="572.314" y="703.206" width="641.773" height="15.5348" transform="rotate(-90 572.314 703.206)" fill="#D1AD1A"/>
<rect x="1030.59" y="703.206" width="641.773" height="15.5348" transform="rotate(-90 1030.59 703.206)" fill="#D1AD1A"/>
<rect x="611.151" y="703.206" width="641.773" height="15.5348" transform="rotate(-90 611.151 703.206)" fill="#D1AD1A"/>
<rect x="1070.72" y="703.206" width="641.773" height="15.5348" transform="rotate(-90 1070.72 703.206)" fill="#D1AD1A"/>
<rect x="649.988" y="703.206" width="641.773" height="15.5348" transform="rotate(-90 649.988 703.206)" fill="#D1AD1A"/>
<rect x="1110.85" y="703.206" width="641.773" height="15.5348" transform="rotate(-90 1110.85 703.206)" fill="#D1AD1A"/>
<rect x="688.825" y="703.206" width="641.773" height="15.5348" transform="rotate(-90 688.825 703.206)" fill="#D1AD1A"/>
<rect x="727.662" y="703.206" width="641.773" height="15.5348" transform="rotate(-90 727.662 703.206)" fill="#D1AD1A"/>
<rect x="766.499" y="703.206" width="641.773" height="15.5348" transform="rotate(-90 766.499 703.206)" fill="#D1AD1A"/>
<path d="M4.70212 811.561L40.0876 739.058C40.2552 738.714 40.6039 738.497 40.9862 738.497H1158.01C1158.4 738.497 1158.74 738.714 1158.91 739.058L1194.3 811.561C1194.62 812.225 1194.14 813 1193.4 813H5.6008C4.8616 813 4.37791 812.225 4.70212 811.561Z" fill="#7B0E0E" stroke="#7B0E0E" stroke-width="9"/>
<path d="M393.664 58.8184V738.497" stroke="#490808" stroke-width="15"/>
<path d="M393.017 277.1H804.041" stroke="#490808" stroke-width="15"/>
<path d="M805.336 61.4321V738.496" stroke="#490808" stroke-width="15"/>
<path d="M454.5 430.5H728.5V601.5H454.5V430.5Z" fill="#FFF1BB" stroke="black"/>
<path d="M467.204 439.177C467.204 441.207 465.575 442.848 463.571 442.848C461.566 442.848 459.937 441.207 459.937 439.177C459.937 437.147 461.566 435.506 463.571 435.506C465.575 435.506 467.204 437.147 467.204 439.177Z" fill="#FFD220" stroke="black" stroke-width="0.5"/>
<path d="M463.571 437.87V284.942" stroke="black" stroke-width="2"/>
<path d="M724.823 439.177C724.823 441.207 723.194 442.848 721.189 442.848C719.185 442.848 717.555 441.207 717.555 439.177C717.555 437.147 719.185 435.506 721.189 435.506C723.194 435.506 724.823 437.147 724.823 439.177Z" fill="#FFD220" stroke="black" stroke-width="0.5"/>
<path d="M721.189 437.87V284.942" stroke="black" stroke-width="2"/>
<rect x="36.3641" y="703.206" width="1130.16" height="35.291" fill="#490808"/>
<rect x="32.4805" y="703.206" width="657.458" height="34.9533" transform="rotate(-90 32.4805 703.206)" fill="#490808"/>
<rect x="1131.57" y="703.206" width="657.458" height="34.9533" transform="rotate(-90 1131.57 703.206)" fill="#490808"/>
<rect x="72.6119" y="703.206" width="641.773" height="15.5348" transform="rotate(-90 72.6119 703.206)" fill="#D1AD1A"/>
<rect x="112.743" y="703.206" width="641.773" height="15.5348" transform="rotate(-90 112.743 703.206)" fill="#D1AD1A"/>
<rect x="152.875" y="703.206" width="641.773" height="15.5348" transform="rotate(-90 152.875 703.206)" fill="#D1AD1A"/>
<rect x="193.007" y="703.206" width="641.773" height="15.5348" transform="rotate(-90 193.007 703.206)" fill="#D1AD1A"/>
<rect x="233.138" y="703.206" width="641.773" height="15.5348" transform="rotate(-90 233.138 703.206)" fill="#D1AD1A"/>
<rect x="273.27" y="703.206" width="641.773" height="15.5348" transform="rotate(-90 273.27 703.206)" fill="#D1AD1A"/>
<rect x="313.401" y="703.206" width="641.773" height="15.5348" transform="rotate(-90 313.401 703.206)" fill="#D1AD1A"/>
<rect x="353.533" y="703.206" width="641.773" height="15.5348" transform="rotate(-90 353.533 703.206)" fill="#D1AD1A"/>
<rect x="32.4805" y="45.7476" width="1130.16" height="35.291" fill="#490808"/>
<rect x="416" width="365" height="116" fill="#7B0E0E"/>
</svg>
