<svg width="1128" height="484" viewBox="0 0 1128 484" fill="none" xmlns="http://www.w3.org/2000/svg">
<path d="M0 47.3871C33.447 47.3871 44.3173 24.2486 44.3173 2L1083.68 2.01976C1083.68 33.1678 1112.11 47.3871 1128 47.3871V420.273C1104.59 420.273 1083.68 446.972 1083.68 471H44.3173C44.3173 446.082 18.3958 420.273 0 420.273L0 47.3871Z" fill="#FFD220"/>
<path d="M396.016 22H897.199V451H396.016H258.107V22H396.016Z" fill="#7B0E0E" stroke="black" stroke-width="4"/>
<path d="M1069.07 22H897.432V451H1069.08C1069.73 439.501 1075.96 428.161 1083.79 419.606C1087.95 415.059 1092.63 411.227 1097.3 408.519C1101.24 406.235 1105.28 404.695 1109.05 404.28V63.8553C1085.11 62.7011 1070.07 40.9372 1069.07 22Z" fill="#7B0E0E" stroke="black" stroke-width="4"/>
<path d="M62.3651 24.5H201.704V448.5H62.347C60.9611 437.045 54.5034 426.11 46.7485 417.872C42.3173 413.165 37.3129 409.171 32.2696 406.329C28.7543 404.348 25.0702 402.844 21.4482 402.128V66.1844C45.1554 63.8531 60.247 43.3066 62.3651 24.5Z" fill="#FFD220" stroke="#7B0E0E" stroke-width="9"/>
<path d="M166.34 67.965L175.18 59.21L163.11 57.425L165.065 51.56L175.945 57.085L173.905 45.1H179.94L177.9 57.085L188.695 51.56L190.735 57.425L178.58 59.21L187.505 67.965L182.405 71.45L176.88 60.825L171.355 71.45L166.34 67.965Z" fill="#7B0E0E"/>
<path d="M166.34 118.965L175.18 110.21L163.11 108.425L165.065 102.56L175.945 108.085L173.905 96.1H179.94L177.9 108.085L188.695 102.56L190.735 108.425L178.58 110.21L187.505 118.965L182.405 122.45L176.88 111.825L171.355 122.45L166.34 118.965Z" fill="#7B0E0E"/>
<path d="M166.34 169.965L175.18 161.21L163.11 159.425L165.065 153.56L175.945 159.085L173.905 147.1H179.94L177.9 159.085L188.695 153.56L190.735 159.425L178.58 161.21L187.505 169.965L182.405 173.45L176.88 162.825L171.355 173.45L166.34 169.965Z" fill="#7B0E0E"/>
<path d="M166.34 220.965L175.18 212.21L163.11 210.425L165.065 204.56L175.945 210.085L173.905 198.1H179.94L177.9 210.085L188.695 204.56L190.735 210.425L178.58 212.21L187.505 220.965L182.405 224.45L176.88 213.825L171.355 224.45L166.34 220.965Z" fill="#7B0E0E"/>
<path d="M166.34 271.965L175.18 263.21L163.11 261.425L165.065 255.56L175.945 261.085L173.905 249.1H179.94L177.9 261.085L188.695 255.56L190.735 261.425L178.58 263.21L187.505 271.965L182.405 275.45L176.88 264.825L171.355 275.45L166.34 271.965Z" fill="#7B0E0E"/>
<path d="M166.34 322.965L175.18 314.21L163.11 312.425L165.065 306.56L175.945 312.085L173.905 300.1H179.94L177.9 312.085L188.695 306.56L190.735 312.425L178.58 314.21L187.505 322.965L182.405 326.45L176.88 315.825L171.355 326.45L166.34 322.965Z" fill="#7B0E0E"/>
<path d="M166.34 373.965L175.18 365.21L163.11 363.425L165.065 357.56L175.945 363.085L173.905 351.1H179.94L177.9 363.085L188.695 357.56L190.735 363.425L178.58 365.21L187.505 373.965L182.405 377.45L176.88 366.825L171.355 377.45L166.34 373.965Z" fill="#7B0E0E"/>
<path d="M166.34 424.965L175.18 416.21L163.11 414.425L165.065 408.56L175.945 414.085L173.905 402.1H179.94L177.9 414.085L188.695 408.56L190.735 414.425L178.58 416.21L187.505 424.965L182.405 428.45L176.88 417.825L171.355 428.45L166.34 424.965Z" fill="#7B0E0E"/>
<rect x="220.327" y="4" width="21.6561" height="465" fill="#FFD220"/>
<ellipse cx="231.155" cy="464.5" rx="8.00334" ry="8.5" fill="#FFF1BB"/>
<ellipse cx="231.155" cy="350.5" rx="8.00334" ry="8.5" fill="#FFF1BB"/>
<ellipse cx="231.155" cy="293.5" rx="8.00334" ry="8.5" fill="#FFF1BB"/>
<ellipse cx="231.155" cy="8.5" rx="8.00334" ry="8.5" fill="#FFF1BB"/>
<ellipse cx="231.155" cy="65.5" rx="8.00334" ry="8.5" fill="#FFF1BB"/>
<ellipse cx="231.155" cy="122.5" rx="8.00334" ry="8.5" fill="#FFF1BB"/>
<ellipse cx="231.155" cy="236.5" rx="8.00334" ry="8.5" fill="#FFF1BB"/>
<ellipse cx="231.155" cy="407.5" rx="8.00334" ry="8.5" fill="#FFF1BB"/>
<ellipse cx="231.155" cy="179.5" rx="8.00334" ry="8.5" fill="#FFF1BB"/>
<path d="M65.6513 332.223L65.6513 350.387L81.9165 356L65.6513 361.613L65.6513 379.776L55.5989 365.082L39.3337 370.695L49.3861 356L39.3337 341.305L55.5989 346.918L65.6513 332.223Z" fill="#7B0E0E"/>
<path d="M65.6513 212.223L65.6513 230.387L81.9165 236L65.6513 241.613L65.6513 259.776L55.5989 245.082L39.3337 250.695L49.3861 236L39.3337 221.305L55.5989 226.918L65.6513 212.223Z" fill="#7B0E0E"/>
<path d="M65.6513 92.2235L65.6513 110.387L81.9165 116L65.6513 121.613L65.6513 139.776L55.5988 125.082L39.3336 130.695L49.3861 116L39.3336 101.305L55.5988 106.918L65.6513 92.2235Z" fill="#7B0E0E"/>
<ellipse cx="58.3773" cy="176" rx="9.41569" ry="10" fill="#7B0E0E"/>
<ellipse cx="76.2671" cy="61" rx="9.41569" ry="10" fill="#7B0E0E"/>
<ellipse cx="76.2671" cy="412" rx="9.41569" ry="10" fill="#7B0E0E"/>
<ellipse cx="58.3773" cy="296" rx="9.41569" ry="10" fill="#7B0E0E"/>
</svg>
